<svg width="122" height="40" viewBox="0 0 122 40" fill="none" xmlns="http://www.w3.org/2000/svg">
<g clipPath="url(#clip0_2083_633)">
<path fill-rule="evenodd" clip-rule="evenodd" d="M16.7264 39.8068C20.8799 38.0719 23.7167 36.7559 25.6478 35.7258C28.5411 34.1827 31.01 32.2975 32.3284 29.1598C33.0992 27.328 33.4954 25.1205 33.4472 22.4687C33.4205 16.2436 33.3939 10.0218 33.3672 3.79993C24.296 -1.26637 9.15676 -1.26637 0.0855031 3.79827C0.0588669 10.0218 0.0305661 16.2436 0.00393001 22.4687C-0.0443479 25.1205 0.35353 27.328 1.12264 29.1598C2.44113 32.2975 4.91163 34.1827 7.80496 35.7258C9.73607 36.7576 12.5728 38.0719 16.7247 39.8068H16.7264Z" fill="#002E5E"/>
<path fill-rule="evenodd" clip-rule="evenodd" d="M16.7256 38.4131C19.5158 37.2442 22.3825 36.012 25.0444 34.591C27.6781 33.185 29.9554 31.4951 31.1491 28.6597C31.9615 26.726 32.2062 24.5719 32.1679 22.4879V22.4713L32.098 12.1282C22.7171 10.2446 7.19328 11.6323 1.31669 20.0249L1.28672 22.4713V22.4879C1.2501 24.5702 1.49315 26.726 2.30555 28.6597C3.49753 31.4951 5.77656 33.185 8.40855 34.591C11.0705 36.012 13.9372 37.2459 16.7273 38.4131H16.7256Z" fill="#FFCB05"/>
<path fill-rule="evenodd" clip-rule="evenodd" d="M21.6083 22.0336C20.0035 22.78 19.5407 25.1011 19.6505 26.7375C19.6905 27.3671 19.7621 28.0116 19.4991 28.6044C18.7349 30.316 16.113 29.274 16.6773 26.8912C17.2483 24.4716 18.4469 22.3008 18.4503 19.4537C18.4519 17.1059 17.5197 15.0169 15.6219 13.125C16.2062 15.1839 15.224 16.2726 14.1053 17.5183C13.496 18.1963 12.8833 18.8626 12.587 19.7526C12.1825 20.9682 12.304 22.3275 13.2113 23.5298C13.1098 22.7683 13.0914 22.0536 13.2229 21.4157C13.6058 19.5422 16.0364 18.6755 16.6257 17.0391C17.255 18.0727 17.0619 19.5723 16.5125 20.9766C15.4953 23.134 13.3994 26.0713 13.9421 28.576C14.2734 30.1023 15.0259 31.1743 16.4243 31.7521C18.1556 32.4684 20.3165 31.7454 21.1472 30.0138C21.5567 29.1605 21.5867 28.202 21.317 27.16C20.3931 23.9589 20.9757 22.9604 21.6083 22.0336Z" fill="white"/>
<path fill-rule="evenodd" clip-rule="evenodd" d="M21.5448 21.9288L21.5547 21.9221L21.7096 22.1024C21.4016 22.5549 21.1053 23.0225 21.0004 23.7605C20.8922 24.5103 20.9787 25.5439 21.4349 27.1253V27.1286C21.5714 27.663 21.633 28.1756 21.6064 28.6649C21.583 29.1575 21.4682 29.6267 21.2567 30.0676C20.6375 31.3583 19.3073 32.1064 17.9439 32.1482C17.6775 32.1565 17.4112 32.1381 17.1498 32.0914C16.8884 32.0446 16.6304 31.9712 16.3774 31.8676V31.8643C15.6565 31.5671 15.1022 31.1413 14.6843 30.5936C14.2698 30.0475 13.9918 29.3813 13.8236 28.5998C13.3875 26.5893 14.5994 24.335 15.6366 22.403C15.9162 21.882 16.1842 21.3844 16.4007 20.9235C16.7869 19.935 16.9933 18.903 16.8518 18.0263C16.8252 17.8593 16.7836 17.6957 16.7303 17.5421C16.7036 17.4669 16.6737 17.3935 16.6404 17.3216C16.3191 17.9896 15.7148 18.5273 15.1055 19.0716C14.3331 19.7613 13.5439 20.4676 13.3442 21.4378C13.2809 21.7484 13.2526 22.0774 13.2543 22.423C13.2543 22.7703 13.2843 23.1344 13.3342 23.5101L13.1144 23.6002C12.4435 22.7119 12.1905 21.7384 12.2554 20.7949C12.2688 20.6112 12.2921 20.4276 12.327 20.2489C12.362 20.0736 12.4103 19.8932 12.4702 19.7162L12.4735 19.7095C12.7698 18.8195 13.3625 18.1582 13.9668 17.4886L14.0184 17.4302L14.0234 17.4235C15.1155 16.2112 16.0711 15.1458 15.505 13.1554L15.7098 13.0352C16.6687 13.9903 17.3862 14.9989 17.8623 16.0642C18.3401 17.133 18.5748 18.2584 18.5748 19.449C18.5748 21.366 18.0371 22.9741 17.5094 24.5537C17.248 25.3352 16.99 26.11 16.8002 26.9132C16.6021 27.7548 16.8169 28.4177 17.2048 28.8335C17.3745 29.0139 17.576 29.1491 17.7858 29.231C17.9972 29.3111 18.2203 29.3412 18.4317 29.3144C18.8196 29.2643 19.1792 29.0205 19.3922 28.5497C19.6236 28.0303 19.582 27.4526 19.5421 26.8815L19.5321 26.7412C19.4522 25.5439 19.6752 23.986 20.4144 22.9156C20.5609 22.7036 20.7274 22.5115 20.9155 22.3445C21.1053 22.1759 21.315 22.0339 21.5497 21.9237L21.5448 21.9288ZM21.2185 22.413C21.1685 22.4514 21.1202 22.4915 21.0736 22.5332C20.9005 22.6869 20.7474 22.8655 20.6125 23.0609C19.9066 24.0795 19.6969 25.5757 19.7751 26.7295L19.7851 26.8698C19.8251 27.4693 19.8683 28.0771 19.6137 28.6549C19.3639 29.2126 18.9295 29.5015 18.4616 29.5633C18.2086 29.595 17.9456 29.5599 17.6975 29.4664C17.4511 29.3712 17.2181 29.2159 17.025 29.0072C16.5871 28.538 16.3408 27.7982 16.5605 26.8648C16.7519 26.0549 17.0133 25.2718 17.2763 24.4836C17.7991 22.9206 18.3285 21.3343 18.3301 19.4574C18.3301 18.3018 18.102 17.2098 17.6393 16.1728C17.228 15.2511 16.6321 14.3744 15.848 13.5361C16.2009 15.3763 15.2653 16.4183 14.2082 17.5955L14.2015 17.6038L14.1499 17.6606C13.5639 18.3119 12.9863 18.9531 12.7066 19.7947L12.7049 19.8014C12.6517 19.9633 12.6067 20.132 12.5717 20.3057C12.5368 20.476 12.5151 20.648 12.5035 20.8183C12.4519 21.5614 12.6117 22.3278 13.0395 23.0509C13.0212 22.8388 13.0112 22.6317 13.0096 22.4297C13.0096 22.0673 13.0395 21.72 13.1045 21.3961C13.3209 20.3424 14.1383 19.6127 14.9423 18.8946C15.6032 18.3035 16.2525 17.7241 16.5122 17.0011L16.5988 16.7622L16.7336 16.9777V16.981H16.7353C16.8269 17.1346 16.9034 17.2966 16.9634 17.4653C17.0216 17.6339 17.0649 17.8093 17.0965 17.9913C17.2464 18.9147 17.0316 19.9967 16.6288 21.0237V21.0304L16.6254 21.0337C16.4057 21.4996 16.136 22.0005 15.8546 22.5265C14.8358 24.4201 13.6488 26.6327 14.065 28.5547C14.2265 29.2994 14.4895 29.934 14.8841 30.4499C15.2753 30.9626 15.7964 31.3634 16.4739 31.6439H16.4773C16.7086 31.7407 16.9517 31.8109 17.1981 31.8543C17.4462 31.8977 17.6959 31.9161 17.9422 31.9077C19.2191 31.8676 20.4644 31.1696 21.0404 29.9674C21.2368 29.5566 21.3433 29.1191 21.365 28.6582C21.3899 28.1957 21.33 27.7081 21.2018 27.2004C20.734 25.5807 20.6491 24.5137 20.7607 23.7338C20.8406 23.1828 21.0137 22.7754 21.2218 22.418L21.2185 22.413Z" fill="#A7A9AC"/>
<path fill-rule="evenodd" clip-rule="evenodd" d="M44.787 11.5517H50.5027L47.6646 2.63138L44.787 11.5517ZM39.8796 19.284V18.3629C40.4974 18.3296 40.9746 18.1561 41.3078 17.8323C41.6407 17.5136 41.9604 16.8913 42.2635 15.9635L47.2091 0.674115L49.2469 0L54.764 16.5392C54.8799 16.9129 55.0157 17.2233 55.1617 17.4703C55.3091 17.7189 55.478 17.9108 55.6653 18.0593C55.7896 18.151 55.9552 18.2211 56.1573 18.2679C56.3611 18.3179 56.6626 18.3479 57.0701 18.3629V19.284H50.1881V18.3629H50.3635C51.0891 18.3629 51.6011 18.2728 51.8995 18.0926C52.1942 17.9141 52.3402 17.6154 52.3402 17.1866C52.3402 17.1132 52.3185 16.9964 52.2756 16.8295C52.2358 16.6677 52.181 16.4808 52.1114 16.2722L50.9336 12.7481H44.3926L43.5177 15.6715C43.4663 15.8234 43.4267 15.9885 43.397 16.1687C43.3669 16.3473 43.3537 16.5308 43.3537 16.7177C43.3537 17.28 43.4964 17.6939 43.7863 17.9642C44.0712 18.2278 44.5119 18.3629 45.1016 18.3629H45.3568V19.284H39.8779H39.8796ZM74.5408 1.72534L68.2485 19.284H67.551L61.1641 1.9289V14.9173C61.1641 16.087 61.353 16.918 61.7338 17.4235C62.115 17.9241 62.7413 18.2044 63.6193 18.2645L63.6328 19.284H57.5622V18.2645C58.4584 18.1944 59.0897 17.9108 59.4608 17.4152C59.8335 16.918 60.0191 16.087 60.0191 14.9173V3.99797C60.0191 2.78656 59.8934 2.05572 59.6399 1.79375C59.3864 1.53678 58.8677 1.40663 58.0792 1.40663H57.5605V0.460536H62.9086L68.4604 15.4663L73.9163 0.462203H79.4978V1.40663H79.0308C78.2089 1.40663 77.677 1.54679 77.4303 1.82211C77.1849 2.10077 77.0622 2.77989 77.0622 3.86949V16.0703C77.0622 17.0398 77.1883 17.6638 77.4435 17.9475C77.6986 18.2261 78.2272 18.3646 79.0322 18.3646H79.4995V19.2857H72.1052V18.3646H72.5361C73.3546 18.3646 73.8946 18.2295 74.1549 17.9608C74.4117 17.6855 74.5408 17.0598 74.5408 16.0703V1.72534ZM88.2788 0.462203V1.40663H87.7851C86.9551 1.40663 86.4133 1.54679 86.1629 1.82211C85.9077 2.10077 85.782 2.74485 85.782 3.75603V15.9385C85.782 16.9714 85.9162 17.6321 86.1879 17.9241C86.4562 18.2161 87.0064 18.3629 87.8331 18.3629H88.2788V19.284H80.8267V18.3629H81.143C82.0044 18.3629 82.5745 18.2278 82.8527 17.9642C83.1345 17.6922 83.2721 17.0531 83.2721 16.0436V3.75434C83.2721 2.69145 83.1426 2.03402 82.8794 1.7804C82.6208 1.53178 82.0575 1.40663 81.1961 1.40663H80.8284V0.460536H88.2805L88.2788 0.462203ZM104.479 0.462203L106.016 4.99244L105.203 5.2978C103.895 3.61251 102.886 2.52793 102.174 2.03402C101.465 1.54513 100.685 1.30151 99.8279 1.30151C99.4386 1.30151 99.1703 1.37159 99.0212 1.50508C98.8688 1.6419 98.7911 1.89887 98.7911 2.27263V16.0953C98.7911 17.0347 98.9253 17.6505 99.1885 17.9358C99.4552 18.2195 99.9972 18.3629 100.819 18.3629H101.286V19.284H93.809V18.3629H94.2764C95.0899 18.3629 95.6265 18.2245 95.8851 17.9508C96.1483 17.6705 96.2794 17.0615 96.2794 16.117V2.2743C96.2794 1.90054 96.2014 1.64357 96.0507 1.50675C95.8982 1.37326 95.6299 1.30318 95.2423 1.30318C94.3856 1.30318 93.6069 1.54679 92.8962 2.03569C92.1872 2.52793 91.1747 3.61251 89.8675 5.29949L89.0541 4.99414L90.5884 0.463871H104.479V0.462203ZM112.809 11.6001L108.296 2.63305C108.039 2.14916 107.775 1.82712 107.501 1.66026C107.219 1.4984 106.795 1.4083 106.22 1.3816L106.245 0.462203H112.685V1.3816H112.456C111.855 1.3816 111.417 1.435 111.144 1.54346C110.869 1.64691 110.73 1.81377 110.73 2.03236C110.73 2.12914 110.755 2.24093 110.808 2.37609C110.854 2.51625 110.963 2.73484 111.122 3.03018L114.787 10.0867L118.006 3.63088C118.106 3.42563 118.183 3.23041 118.235 3.04687C118.281 2.86332 118.309 2.69312 118.309 2.53294C118.309 2.14916 118.149 1.86216 117.829 1.6686C117.507 1.47838 117.01 1.3816 116.345 1.3816L116.371 0.462203H121.77V1.3816C120.823 1.49006 120.07 2.09576 119.502 3.1937C119.451 3.30216 119.413 3.38559 119.386 3.43732L115.332 11.2564V16.1704C115.332 17.0631 115.466 17.6521 115.732 17.9375C116 18.2211 116.54 18.3646 117.362 18.3646H117.829V19.2857H110.373V18.3646H110.846C111.638 18.3646 112.164 18.2295 112.425 17.9658C112.681 17.6939 112.809 17.0898 112.809 16.1454V11.6001Z" fill="#002E5E"/>
<path fill-rule="evenodd" clip-rule="evenodd" d="M45.9114 22.7862V22.3191H48.9695V22.7862C48.5213 22.8112 48.2037 22.9393 48.0175 23.1721C47.8333 23.4033 47.7359 23.797 47.7359 24.3515V27.843C47.7359 29.035 47.471 29.913 46.9391 30.4753C46.4088 31.0408 45.5822 31.322 44.4707 31.322C43.3592 31.322 42.5356 31.0596 41.9742 30.53C41.4109 30.002 41.1327 29.2162 41.1327 28.1711V23.8016C41.1327 23.372 41.0651 23.0893 40.9286 22.9534C40.7901 22.819 40.5153 22.7487 40.1033 22.7487H39.8779V22.3191H43.6555V22.7487H43.42C43.0033 22.7487 42.7333 22.8143 42.6015 22.9455C42.473 23.0736 42.4071 23.372 42.4071 23.836V28.3679C42.4071 29.1756 42.5998 29.7802 42.9837 30.1816C43.369 30.5816 43.9502 30.7815 44.7322 30.7815C45.5146 30.7815 46.1503 30.5519 46.5437 30.0973C46.9424 29.6396 47.1415 28.9506 47.1415 28.0274V24.35C47.1415 23.7938 47.0492 23.4001 46.865 23.1674C46.6805 22.9362 46.3612 22.8096 45.9097 22.7862H45.9114ZM51.4544 22.3066L56.5953 29.1631V24.3515C56.5953 23.7798 56.4916 23.3798 56.2857 23.1455C56.0782 22.9127 55.7275 22.7924 55.232 22.7846V22.3066H58.5368V22.7846C58.0444 22.7924 57.6936 22.9127 57.4861 23.1455C57.277 23.3798 57.1719 23.7798 57.1719 24.3515V31.322H56.7173L51.1415 23.8266V29.0803C51.1415 29.6521 51.2435 30.052 51.451 30.2863C51.6585 30.5175 52.0076 30.6394 52.5048 30.6472V31.1252H49.2016L49.2067 30.6472C49.7021 30.6394 50.0546 30.5175 50.2571 30.2863C50.4629 30.052 50.5649 29.6521 50.5649 29.0803V23.2627C50.4118 23.1033 50.2243 22.983 50.0053 22.9002C49.7846 22.8159 49.5193 22.7643 49.2067 22.7472L49.2016 22.3066H51.4544ZM62.6733 22.3066V22.7487H62.4246C62.0049 22.7487 61.7315 22.8143 61.6047 22.9424C61.4763 23.0736 61.4121 23.3752 61.4121 23.8485V29.5567C61.4121 30.0379 61.4797 30.3488 61.6179 30.4863C61.7528 30.6222 62.0312 30.6925 62.4479 30.6925H62.6717V31.1237H58.9089V30.6925H59.0688C59.5034 30.6925 59.7933 30.6284 59.9316 30.505C60.0732 30.3785 60.1424 30.0785 60.1424 29.6052V23.8485C60.1424 23.3501 60.0782 23.0424 59.943 22.9237C59.8116 22.8065 59.528 22.7487 59.0917 22.7487H58.9072V22.3066H62.67H62.6733ZM67.1836 31.4283L64.4864 24.1125C64.4783 24.0922 64.4716 24.0703 64.4635 24.0484C64.1556 23.2299 63.6862 22.7924 63.0539 22.7378V22.3082H66.5449V22.7378C66.1414 22.7581 65.8616 22.8018 65.7051 22.869C65.5469 22.9377 65.4678 23.0409 65.4678 23.1814C65.4678 23.2252 65.4827 23.3002 65.5108 23.4095C65.5371 23.5173 65.5784 23.6376 65.6294 23.7751L67.7091 29.3756L69.6622 23.9532C69.7017 23.8438 69.7281 23.747 69.7443 23.6563C69.7625 23.5673 69.7706 23.4814 69.7706 23.4017C69.7706 23.183 69.6932 23.0221 69.5371 22.919C69.382 22.8206 69.117 22.7581 68.745 22.7378V22.3082H71.5756V22.7378C71.2593 22.7628 71.0156 22.844 70.8443 22.9877C70.675 23.1283 70.5216 23.383 70.3833 23.7547L67.5412 31.4283H67.1823H67.1836ZM72.1488 31.1252V30.694H72.3661C72.7828 30.694 73.0592 30.6269 73.191 30.4972C73.3245 30.366 73.3904 30.0614 73.3904 29.5818V23.8376C73.3904 23.3486 73.3245 23.044 73.1961 22.9252C73.0643 22.8081 72.776 22.7503 72.3282 22.7503H72.1488V22.3082H78.7307L79.6594 24.3828L79.2937 24.5124C78.7175 23.8157 78.192 23.3377 77.7179 23.0799C77.2454 22.8206 76.6739 22.6909 76.0021 22.6909C75.4587 22.6909 75.1011 22.7581 74.9267 22.8909C74.752 23.0237 74.6648 23.2986 74.6648 23.7079V26.3027H75.3201C75.9196 26.3027 76.3661 26.1902 76.6574 25.9684C76.9487 25.745 77.1366 25.3747 77.2221 24.8561H77.6702V28.2648H77.2221C77.1498 27.7259 76.9653 27.3416 76.6756 27.1072C76.384 26.8745 75.9294 26.7589 75.3218 26.7589H74.6665V29.7833C74.6665 30.1176 74.7456 30.3472 74.9021 30.4722C75.0599 30.5972 75.3465 30.6597 75.7534 30.6597C76.5651 30.6597 77.2833 30.5003 77.9088 30.1848C78.533 29.8676 79.1011 29.374 79.6101 28.7007L79.9886 28.8257L79.0828 31.1283H72.1488V31.1252ZM86.9017 31.1252L84.3789 26.8401H83.4123V29.6661C83.4123 30.0911 83.4796 30.3676 83.6131 30.5003C83.7482 30.6284 84.02 30.694 84.4316 30.694H84.654V31.1252H80.896V30.694H81.1149C81.5333 30.694 81.8084 30.6269 81.9402 30.4941C82.0734 30.3597 82.1393 30.0457 82.1393 29.5474V23.7782C82.1393 23.3361 82.0734 23.0549 81.9433 22.9315C81.8115 22.8112 81.5283 22.7487 81.0886 22.7487H80.896V22.3066H84.6408C85.8114 22.3066 86.6992 22.505 87.3018 22.9018C87.9061 23.2971 88.2092 23.8813 88.2092 24.6515C88.2092 25.2326 88.0017 25.695 87.5833 26.0434C87.17 26.3886 86.5245 26.6308 85.655 26.7682L87.3843 29.6067C87.6624 30.0629 87.9145 30.3551 88.1352 30.491C88.3623 30.6284 88.6604 30.694 89.0375 30.694H89.1328V31.1252H86.9034H86.9017ZM83.4123 26.3855H84.4613C85.2863 26.3855 85.8824 26.2449 86.2511 25.9621C86.6201 25.6825 86.8043 25.2311 86.8043 24.6093C86.8043 23.9578 86.63 23.4798 86.2873 23.1752C85.9449 22.8659 85.4032 22.7143 84.6654 22.7143C84.145 22.7143 83.8057 22.7784 83.6475 22.9065C83.4914 23.033 83.4106 23.3158 83.4106 23.7547V26.3855H83.4123ZM90.3991 31.2986L89.4572 28.9444L89.8969 28.7897C90.4224 29.4474 90.9757 29.9551 91.5519 30.3129C92.1314 30.6691 92.6914 30.8472 93.2332 30.8472C93.7455 30.8472 94.1767 30.6847 94.5228 30.3582C94.8685 30.0332 95.0415 29.6271 95.0415 29.1428C95.0415 28.6585 94.8817 28.2586 94.5637 27.9743C94.246 27.6884 93.5907 27.4087 92.6009 27.1338C92.5434 27.1197 92.4511 27.0932 92.3258 27.0619C91.5356 26.8651 90.9625 26.5995 90.61 26.2683C90.3548 26.0278 90.1605 25.7575 90.0236 25.4576C89.8905 25.1561 89.8229 24.8374 89.8229 24.5031C89.8229 23.8266 90.0601 23.2627 90.5394 22.8159C91.0186 22.3675 91.6178 22.1426 92.3389 22.1426C92.6208 22.1426 92.932 22.191 93.2761 22.2894C93.6171 22.3863 93.8229 22.4347 93.8905 22.4347C94.0088 22.4347 94.1439 22.4144 94.292 22.3691C94.4437 22.3269 94.61 22.2629 94.7928 22.1801L95.6769 24.4093L95.3048 24.5999C94.7894 23.9079 94.2872 23.3908 93.8013 23.0518C93.3139 22.7128 92.833 22.5441 92.3521 22.5441C91.8716 22.5441 91.5059 22.6925 91.2011 22.9893C90.8983 23.2877 90.7482 23.6595 90.7482 24.111C90.7482 24.3624 90.7962 24.5859 90.8949 24.7811C90.9922 24.978 91.15 25.1592 91.3609 25.3263C91.6475 25.5497 92.2305 25.7684 93.1162 25.9887C93.3288 26.0403 93.4934 26.0809 93.6022 26.1074C94.3991 26.3152 94.9902 26.637 95.3856 27.0729C95.7806 27.5103 95.9783 28.0586 95.9783 28.721C95.9783 29.4505 95.7266 30.0676 95.2223 30.5706C94.7185 31.0737 94.1044 31.3267 93.3798 31.3267C92.955 31.3267 92.5252 31.2549 92.0855 31.1143C91.6475 30.9705 91.4136 30.8971 91.389 30.8971C91.2903 30.8971 91.1649 30.9299 91.0135 30.9908C90.8621 31.0518 90.6593 31.1564 90.4042 31.3017L90.3991 31.2986ZM100.581 22.3082V22.7503H100.332C99.9141 22.7503 99.639 22.8159 99.5123 22.944C99.3822 23.0752 99.3196 23.3767 99.3196 23.8501V29.5583C99.3196 30.0395 99.3869 30.3504 99.5254 30.4878C99.6603 30.6237 99.9388 30.694 100.355 30.694H100.581V31.1252H96.8164V30.694H96.9763C97.4109 30.694 97.6992 30.63 97.8391 30.5066C97.9824 30.38 98.0517 30.0801 98.0517 29.6067V23.8501C98.0517 23.3517 97.9858 23.044 97.8523 22.9252C97.7205 22.8081 97.4373 22.7503 97.001 22.7503H96.8164V22.3082H100.581ZM108.765 22.3082L109.541 24.4296L109.129 24.5734C108.469 23.7829 107.957 23.2752 107.598 23.0455C107.24 22.8159 106.847 22.7034 106.414 22.7034C106.218 22.7034 106.081 22.7362 106.005 22.7987C105.928 22.8627 105.888 22.9831 105.888 23.1596V29.6333C105.888 30.0739 105.956 30.3628 106.091 30.4957C106.226 30.63 106.499 30.6956 106.914 30.6956H107.15V31.1268H103.372V30.6956H103.608C104.017 30.6956 104.289 30.63 104.421 30.5019C104.554 30.3691 104.619 30.0848 104.619 29.6427V23.1564C104.619 22.9799 104.579 22.8596 104.503 22.7971C104.426 22.7346 104.291 22.7018 104.094 22.7018C103.66 22.7018 103.267 22.8159 102.908 23.044C102.549 23.2736 102.038 23.7813 101.379 24.5718L100.966 24.4281L101.742 22.3066H108.76L108.765 22.3082ZM112.972 27.5259L110.693 23.3236C110.565 23.0971 110.43 22.9471 110.292 22.8674C110.148 22.7924 109.934 22.7487 109.643 22.7362L109.656 22.3066H112.908V22.7362H112.791C112.488 22.7362 112.266 22.7612 112.129 22.8112C111.989 22.8612 111.919 22.9377 111.919 23.0393C111.919 23.0846 111.932 23.1377 111.957 23.2002C111.983 23.2658 112.037 23.3673 112.118 23.5064L113.969 26.812L115.596 23.7891C115.645 23.6923 115.686 23.6001 115.711 23.5157C115.734 23.4298 115.747 23.3501 115.747 23.2736C115.747 23.0955 115.667 22.9596 115.505 22.8705C115.344 22.78 115.092 22.7346 114.756 22.7346L114.769 22.3051H117.498V22.7346C117.018 22.7862 116.638 23.069 116.352 23.5829C116.325 23.6345 116.305 23.6735 116.292 23.6985L114.246 27.3619V29.6645C114.246 30.0817 114.313 30.3582 114.446 30.4925C114.581 30.6269 114.855 30.6925 115.271 30.6925H115.507V31.1237H111.741V30.6925H111.98C112.38 30.6925 112.646 30.6284 112.776 30.505C112.907 30.3785 112.971 30.0942 112.971 29.6521V27.5243L112.972 27.5259Z" fill="#002E5E"/>
<path fill-rule="evenodd" clip-rule="evenodd" d="M8.2574 5.61983H9.60586L8.93496 3.52583L8.25574 5.61983H8.2574ZM7.10205 7.43495V7.21787C7.2469 7.2095 7.36011 7.16943 7.44 7.09427C7.51824 7.02082 7.59316 6.87387 7.66474 6.65512L8.83175 3.06663L9.3112 2.90967L10.6114 6.79038C10.6396 6.87888 10.6696 6.95068 10.7046 7.00912C10.7395 7.06756 10.7795 7.11265 10.8228 7.14773C10.8528 7.16777 10.891 7.18448 10.9393 7.19614C10.9876 7.20783 11.0575 7.21451 11.1541 7.21787V7.43495H9.53259V7.21787H9.57588C9.74736 7.21787 9.86723 7.19614 9.93715 7.15441C10.0054 7.11265 10.0404 7.04085 10.0404 6.94234C10.0404 6.92397 10.0354 6.89726 10.0254 6.85885C10.0154 6.82044 10.0037 6.77702 9.98706 6.72692L9.70907 5.89868H8.16751L7.96274 6.58499C7.94943 6.62173 7.94108 6.66014 7.93442 6.70187C7.92776 6.74363 7.92445 6.78705 7.92445 6.83044C7.92445 6.96238 7.95774 7.05922 8.02601 7.12268C8.09424 7.18448 8.19748 7.21617 8.33729 7.21617H8.39724V7.43326H7.10705L7.10205 7.43495ZM15.2693 3.31377L13.786 7.43495H13.6212L12.1163 3.36219V6.40967C12.1163 6.6835 12.1612 6.87888 12.2511 6.99743C12.341 7.116 12.4892 7.17946 12.6956 7.19448V7.43495H11.2689V7.19448C11.4804 7.17777 11.6302 7.11265 11.7168 6.99577C11.805 6.87888 11.8483 6.6835 11.8483 6.40967V3.84811C11.8483 3.56424 11.8183 3.39224 11.7567 3.33047C11.6984 3.27035 11.5753 3.23863 11.3905 3.23863H11.2673V3.01821H12.5275L13.836 6.5399L15.1212 3.01821H16.4363V3.23863H16.3265C16.1334 3.23863 16.0085 3.27369 15.9486 3.33715C15.8903 3.40061 15.862 3.56092 15.862 3.81638V6.68017C15.862 6.90895 15.892 7.05421 15.9519 7.12102C16.0118 7.18614 16.135 7.21787 16.3265 7.21787H16.4363V7.43495H14.6933V7.21787H14.7949C14.988 7.21787 15.1162 7.18614 15.1761 7.12268C15.2377 7.05756 15.2677 6.91061 15.2677 6.68017V3.31377H15.2693ZM18.5056 3.01821V3.23863H18.3891C18.1943 3.23863 18.0661 3.27369 18.0062 3.33715C17.9463 3.40061 17.9163 3.55424 17.9163 3.79136V6.65011C17.9163 6.89058 17.9479 7.04753 18.0112 7.116C18.0761 7.18448 18.2043 7.21787 18.4007 7.21787H18.5056V7.43495H16.751V7.21787H16.8259C17.0273 7.21787 17.1622 7.18614 17.2271 7.12434C17.2937 7.06088 17.3253 6.91061 17.3253 6.6735V3.788C17.3253 3.54255 17.297 3.38557 17.2338 3.32713C17.1738 3.27035 17.0406 3.23863 16.8376 3.23863H16.751V3.01821H18.5056ZM22.3229 3.01821L22.6858 4.08024L22.4944 4.15038C22.1864 3.75461 21.9467 3.50078 21.7785 3.38557C21.6137 3.27202 21.4289 3.21525 21.2258 3.21525C21.1359 3.21525 21.071 3.23028 21.036 3.26367C20.9994 3.2954 20.9811 3.35552 20.9811 3.44234V6.68685C20.9811 6.90726 21.0128 7.05088 21.0743 7.11933C21.1376 7.18448 21.2658 7.21787 21.4589 7.21787H21.5688V7.43495H19.8075V7.21787H19.9173C20.1088 7.21787 20.2353 7.18614 20.2952 7.12102C20.3585 7.05587 20.3885 6.91227 20.3885 6.69187V3.44068C20.3885 3.35384 20.3701 3.29373 20.3335 3.262C20.2986 3.22861 20.2353 3.21358 20.1437 3.21358C19.9423 3.21358 19.7575 3.27202 19.591 3.3839C19.4246 3.49912 19.1865 3.75461 18.8769 4.14868L18.6837 4.07855L19.0467 3.01654H22.3179L22.3229 3.01821ZM24.2856 5.6315L23.2219 3.52583C23.1619 3.41227 23.1003 3.33882 23.0354 3.29874C22.9688 3.26033 22.8689 3.23863 22.7324 3.23362L22.7391 3.01821H24.2557V3.23362H24.2007C24.0592 3.23362 23.956 3.24531 23.8911 3.27035C23.8262 3.2954 23.7929 3.33548 23.7929 3.38557C23.7929 3.40729 23.7995 3.434 23.8112 3.46739C23.8228 3.49912 23.8478 3.55089 23.8861 3.61936L24.7501 5.27417L25.5076 3.75963C25.5309 3.71119 25.5492 3.66611 25.5609 3.62102C25.5708 3.57926 25.5775 3.54085 25.5775 3.50078C25.5775 3.41061 25.5409 3.34216 25.466 3.29874C25.391 3.25365 25.2729 3.23195 25.1163 3.23195L25.123 3.01654H26.3949V3.23195C26.1718 3.25699 25.9937 3.40061 25.8605 3.65777C25.8489 3.68448 25.8389 3.70285 25.8338 3.71621L24.8766 5.55136V6.70356C24.8766 6.91227 24.9083 7.05088 24.9715 7.11933C25.0348 7.18448 25.163 7.21787 25.3561 7.21787H25.4676V7.43495H23.7113V7.21787H23.8228C24.0093 7.21787 24.1325 7.18614 24.1957 7.12434C24.2557 7.06088 24.2856 6.91729 24.2856 6.69689V5.6315Z" fill="white"/>
<path fill-rule="evenodd" clip-rule="evenodd" d="M8.42309 8.48546V8.37523H9.09399V8.48546C8.99578 8.49214 8.92751 8.52217 8.88588 8.57729C8.84593 8.63238 8.8243 8.7259 8.8243 8.85614V9.68438C8.8243 9.96658 8.76604 10.1753 8.64948 10.3073C8.53296 10.4425 8.35151 10.5076 8.10846 10.5076C7.8654 10.5076 7.68393 10.4458 7.56074 10.3206C7.43756 10.1937 7.37595 10.0083 7.37595 9.76119V8.7259C7.37595 8.62404 7.36098 8.55726 7.32935 8.52387C7.30106 8.49214 7.23945 8.47543 7.14956 8.47543H7.09961V8.37356H7.92867V8.47543H7.87706C7.78548 8.47543 7.72722 8.49045 7.69727 8.52217C7.67061 8.5539 7.65564 8.62238 7.65564 8.73424V9.80797C7.65564 9.99665 7.69727 10.1419 7.78217 10.2371C7.86706 10.3323 7.99524 10.3791 8.16506 10.3791C8.33485 10.3791 8.47635 10.3239 8.56293 10.2171C8.64948 10.1085 8.69446 9.94489 8.69446 9.72614V8.85448C8.69446 8.72255 8.6728 8.62906 8.63286 8.57394C8.59291 8.52051 8.52299 8.49045 8.42309 8.48377V8.48546ZM9.78821 8.3719L10.9169 9.99499V8.85614C10.9169 8.72089 10.8936 8.6257 10.8486 8.57062C10.8037 8.5155 10.7271 8.48712 10.6172 8.48546V8.3719H11.3431V8.48546C11.2349 8.48712 11.1583 8.5155 11.1133 8.57062C11.0667 8.6257 11.0418 8.72089 11.0418 8.85614V10.5076H10.9435L9.71994 8.73258V9.97828C9.71994 10.1135 9.74157 10.2071 9.78821 10.2638C9.83315 10.3189 9.90973 10.3473 10.0196 10.349V10.4625H9.29375V10.349C9.40362 10.3473 9.4802 10.3189 9.52515 10.2638C9.57009 10.2071 9.59341 10.1135 9.59341 9.97828V8.59899C9.55847 8.56058 9.51849 8.53221 9.47023 8.51217C9.42194 8.49045 9.36202 8.48045 9.29541 8.47543V8.3719H9.78821ZM12.4002 8.3719V8.47709H12.3452C12.252 8.47709 12.1921 8.49214 12.1671 8.52387C12.1372 8.55556 12.1238 8.6257 12.1238 8.7376V10.0902C12.1238 10.2054 12.1388 10.2789 12.1688 10.3106C12.1971 10.344 12.2587 10.3607 12.3502 10.3607H12.4002V10.4625H11.5728V10.3607H11.6078C11.7027 10.3607 11.7659 10.3457 11.7976 10.3156C11.8292 10.2855 11.8458 10.2137 11.8458 10.1019V8.7376C11.8458 8.61902 11.8308 8.54723 11.8009 8.51885C11.7726 8.49214 11.7093 8.47709 11.6144 8.47709H11.5728V8.3719H12.4002ZM13.5389 10.5327L12.9479 8.7977C12.9479 8.7977 12.9429 8.7877 12.9429 8.78268C12.8746 8.58899 12.7731 8.48546 12.6332 8.47207V8.37024H13.399V8.47207C13.3108 8.47543 13.2492 8.48712 13.2159 8.50214C13.181 8.52051 13.1643 8.5439 13.1643 8.57729C13.1643 8.58729 13.166 8.60567 13.1743 8.63072C13.181 8.65577 13.1893 8.68417 13.2009 8.71756L13.6587 10.0434L14.0866 8.75929C14.0949 8.73258 14.0999 8.70919 14.1032 8.68916C14.1082 8.66746 14.1099 8.64743 14.1099 8.62906C14.1099 8.57729 14.0916 8.53889 14.0583 8.5155C14.0233 8.49214 13.9667 8.47543 13.8851 8.47207V8.37024H14.5061V8.47207C14.4362 8.47878 14.3829 8.49882 14.3463 8.53221C14.3063 8.5656 14.2747 8.6257 14.2447 8.71421L13.6221 10.5327H13.5439H13.5389ZM14.7775 10.4609V10.359H14.8257C14.9173 10.359 14.9772 10.344 15.0055 10.3122C15.0355 10.2805 15.0488 10.2087 15.0488 10.0952V8.73424C15.0488 8.61736 15.0355 8.54723 15.0072 8.51885C14.9789 8.49214 14.9156 8.47709 14.8158 8.47709H14.7775V8.3719H16.2225L16.4255 8.86451L16.3457 8.89455C16.2191 8.72926 16.1043 8.6157 15.9994 8.55556C15.8962 8.4938 15.7697 8.46207 15.6215 8.46207C15.5033 8.46207 15.425 8.47709 15.3868 8.51048C15.3485 8.54055 15.3285 8.60567 15.3285 8.70251V9.31868H15.4733C15.6048 9.31868 15.703 9.29197 15.768 9.23855C15.8313 9.18678 15.8729 9.09828 15.8912 8.97472H15.9894V9.78292H15.8912C15.8745 9.656 15.8346 9.56417 15.7713 9.50906C15.7064 9.45228 15.6082 9.42722 15.475 9.42722H15.3301V10.1436C15.3301 10.2238 15.3485 10.2772 15.3818 10.3073C15.4167 10.3356 15.48 10.3506 15.5682 10.3506C15.7463 10.3506 15.9028 10.3139 16.041 10.2388C16.1792 10.1636 16.3024 10.0468 16.4139 9.88645L16.4972 9.91482L16.2991 10.4609H14.7758H14.7775ZM18.1652 10.4609L17.6125 9.4456H17.3995V10.1152C17.3995 10.2154 17.4144 10.2822 17.4427 10.3139C17.4727 10.344 17.5326 10.3607 17.6225 10.3607H17.6724V10.4625H16.8467V10.3607H16.895C16.9866 10.3607 17.0465 10.3457 17.0748 10.3139C17.1048 10.2822 17.1181 10.2071 17.1181 10.0902V8.72424C17.1181 8.61902 17.1031 8.55224 17.0748 8.52387C17.0465 8.49546 16.9849 8.48045 16.8884 8.48045H16.8451V8.37523H17.6675C17.9238 8.37523 18.1186 8.422 18.2518 8.51716C18.3833 8.61068 18.4516 8.74929 18.4516 8.93129C18.4516 9.06821 18.405 9.17845 18.3134 9.26024C18.2235 9.34207 18.082 9.39885 17.8906 9.43224L18.2685 10.1052C18.33 10.2137 18.385 10.2822 18.4332 10.3139C18.4832 10.3473 18.5481 10.364 18.6313 10.364H18.653V10.4659H18.1636L18.1652 10.4609ZM17.3995 9.33706H17.6292C17.809 9.33706 17.9405 9.30367 18.0221 9.23689C18.102 9.17007 18.1436 9.06489 18.1436 8.91794C18.1436 8.77099 18.1053 8.65075 18.0304 8.57729C17.9555 8.5038 17.8373 8.46875 17.6741 8.46875C17.5609 8.46875 17.486 8.48377 17.4511 8.51383C17.4161 8.5439 17.3995 8.61068 17.3995 8.71421V9.33706ZM19.0809 10.5026L18.8744 9.94489L18.971 9.90814C19.0858 10.0635 19.2073 10.1854 19.3339 10.2689C19.4604 10.354 19.5836 10.3957 19.7035 10.3957C19.8167 10.3957 19.9099 10.3573 19.9865 10.2805C20.063 10.2054 20.1013 10.1069 20.1013 9.99333C20.1013 9.87977 20.0647 9.78292 19.9965 9.71611C19.9265 9.64767 19.7834 9.58085 19.5653 9.51573C19.552 9.51241 19.532 9.50573 19.5054 9.49906C19.3322 9.45228 19.2057 9.38882 19.1275 9.312C19.0725 9.2519 19.0293 9.19011 18.9993 9.11831C18.971 9.04651 18.956 8.97136 18.956 8.89289C18.956 8.73424 19.0076 8.59899 19.1125 8.4938C19.2174 8.38858 19.3489 8.3335 19.507 8.3335C19.5703 8.3335 19.6369 8.34519 19.7135 8.36855C19.7867 8.39194 19.8333 8.40363 19.8483 8.40363C19.8733 8.40363 19.9032 8.39861 19.9365 8.38692C19.9681 8.37692 20.0048 8.36187 20.0464 8.34184L20.2395 8.87119L20.1579 8.91628C20.0447 8.75095 19.9349 8.62906 19.8266 8.54889C19.7184 8.46875 19.6152 8.42699 19.5087 8.42699C19.4021 8.42699 19.3222 8.46373 19.2556 8.53221C19.1891 8.60234 19.1557 8.69085 19.1557 8.7977C19.1557 8.85784 19.1657 8.9096 19.1874 8.95634C19.2074 9.00309 19.2423 9.04651 19.2889 9.08658C19.3522 9.14004 19.4804 9.1918 19.6752 9.24356C19.7218 9.25692 19.7567 9.26526 19.7817 9.27194C19.9565 9.32204 20.0864 9.39719 20.1729 9.50072C20.2611 9.60424 20.3028 9.73617 20.3028 9.89312C20.3028 10.0651 20.2478 10.2121 20.1363 10.3306C20.0264 10.4509 19.8916 10.511 19.7317 10.511C19.6385 10.511 19.5436 10.4943 19.4471 10.4609C19.3505 10.4241 19.2989 10.4091 19.2939 10.4091C19.2723 10.4091 19.244 10.4158 19.2107 10.4325C19.1774 10.4458 19.1341 10.4709 19.0759 10.506L19.0809 10.5026ZM21.4648 8.3719V8.47709H21.4098C21.3183 8.47709 21.2583 8.49214 21.23 8.52387C21.2017 8.55556 21.1868 8.6257 21.1868 8.7376V10.0902C21.1868 10.2054 21.2034 10.2789 21.2317 10.3106C21.2617 10.344 21.3233 10.3607 21.4132 10.3607H21.4631V10.4625H20.6374V10.3607H20.674C20.7689 10.3607 20.8305 10.3457 20.8621 10.3156C20.8938 10.2855 20.9088 10.2137 20.9088 10.1019V8.7376C20.9088 8.61902 20.8938 8.54723 20.8655 8.51885C20.8371 8.49214 20.7739 8.47709 20.6773 8.47709H20.6374V8.3719H21.4631H21.4648ZM23.4109 8.3719L23.5807 8.87617L23.4908 8.9079C23.3476 8.72089 23.2344 8.60234 23.1545 8.54723C23.0762 8.49214 22.9913 8.46539 22.8931 8.46539C22.8515 8.46539 22.8232 8.47377 22.8049 8.48712C22.7882 8.50214 22.7799 8.53055 22.7799 8.57228V10.1069C22.7799 10.2121 22.7949 10.2789 22.8249 10.3106C22.8532 10.3423 22.9148 10.359 23.0047 10.359H23.0563V10.4609H22.2255V10.359H22.2788C22.3687 10.359 22.4287 10.344 22.457 10.3139C22.4853 10.2822 22.5019 10.2154 22.5019 10.1102V8.57394C22.5019 8.53221 22.4936 8.5038 22.4753 8.48878C22.4603 8.47377 22.4303 8.46709 22.3854 8.46709C22.2905 8.46709 22.2056 8.4938 22.1273 8.54889C22.0474 8.604 21.9359 8.72255 21.791 8.91126L21.7012 8.87787L21.871 8.37356H23.4125L23.4109 8.3719ZM24.4813 9.60926L23.9819 8.61234C23.9536 8.55892 23.9236 8.52217 23.8936 8.5038C23.862 8.48712 23.8154 8.47709 23.7505 8.47377L23.7538 8.3719H24.468V8.47377H24.443C24.3764 8.47377 24.3281 8.48045 24.2982 8.49214C24.2682 8.5038 24.2516 8.52217 24.2516 8.54556C24.2516 8.55726 24.2533 8.57062 24.2599 8.58397C24.2649 8.59899 24.2765 8.62238 24.2949 8.65577L24.7011 9.43726L25.0573 8.72089C25.069 8.69753 25.0773 8.6758 25.0823 8.65577C25.0873 8.63573 25.0923 8.6157 25.0923 8.59899C25.0923 8.55556 25.074 8.52387 25.0373 8.5038C25.0007 8.48211 24.9474 8.47041 24.8725 8.47041L24.8759 8.36855H25.4752V8.47041C25.3703 8.48377 25.287 8.55058 25.2238 8.67248C25.2188 8.68417 25.2138 8.69417 25.2105 8.69919L24.7626 9.5675V10.1135C24.7626 10.2137 24.7776 10.2772 24.8059 10.3106C24.8359 10.3423 24.8942 10.359 24.9857 10.359H25.0373V10.4609H24.21V10.359H24.2632C24.3498 10.359 24.4097 10.344 24.438 10.3139C24.4663 10.2839 24.4796 10.2154 24.4796 10.1119V9.60756L24.4813 9.60926Z" fill="white"/>
<path fill-rule="evenodd" clip-rule="evenodd" d="M14.265 30.7444C15.9247 34.146 22.9483 32.8434 22.1426 28.1411C22.7053 28.3348 23.0133 28.8742 23.0898 29.6673C23.1781 30.5808 22.92 31.4474 22.8101 32.3475C22.6753 33.4746 22.657 34.5399 22.7619 35.744C22.1859 36.0212 21.6065 36.2918 21.0222 36.5555C20.924 36.1829 20.8274 35.8107 20.7392 35.4501C20.6043 35.5019 20.4479 35.5419 20.3047 35.5636C20.4013 35.9575 20.5028 36.3501 20.6027 36.7443L20.1216 36.9579C19.9717 36.5938 19.8203 36.2297 19.6754 35.8741C19.4873 35.8643 19.2343 35.8541 19.0611 35.8257C19.2576 36.2633 19.4573 36.7141 19.6571 37.1616L19.1094 37.3989C18.843 36.8894 18.5734 36.3684 18.3103 35.8673C18.1172 35.8592 17.9324 35.8375 17.7526 35.8107C18.0739 36.3836 18.4069 36.9796 18.7315 37.5623L18.1439 37.8145L15.5585 34.1392C17.0601 35.4701 20.2131 35.5067 21.6482 33.9789C22.0644 33.6332 21.7813 32.8918 21.0705 33.4829C20.4778 33.9704 19.7004 34.2812 18.903 34.4114C17.676 34.6135 16.3975 34.3846 15.3737 33.6516C14.543 33.0555 13.942 32.1103 14.2633 30.7444H14.265ZM16.0679 33.1857C16.1278 33.1991 16.1678 33.2525 16.1561 33.3059C16.1461 33.3594 16.0895 33.3928 16.0296 33.3811C15.9697 33.3694 15.9297 33.3143 15.9414 33.2608C15.9514 33.2074 16.0096 33.174 16.0696 33.1857H16.0679ZM16.6106 33.2826C16.7321 33.3076 16.812 33.4162 16.7921 33.5247C16.7688 33.6332 16.6522 33.7017 16.5307 33.6766C16.4109 33.6516 16.3276 33.543 16.3509 33.4328C16.3726 33.3243 16.4891 33.2559 16.6123 33.2826H16.6106ZM17.0717 33.4178C17.0385 33.5147 17.0568 33.6466 17.1583 33.7334C17.2765 33.8336 17.4263 33.8186 17.5695 33.8236C19.0578 33.8637 20.2831 33.4078 21.2486 32.4543C21.3851 32.3057 21.3602 32.1053 21.217 32.1237C20.1216 32.9152 18.8846 33.3544 17.5778 33.2592C17.428 33.2492 17.145 33.2058 17.0717 33.4178Z" fill="#002E5E"/>
<path d="M39.8779 34.2856H84.0288V34.9999H39.8779V34.2856Z" fill="#002E5E"/>
<path d="M84.7412 37.2168C84.7412 37.7023 84.85 38.166 85.0626 38.5968C85.2819 39.0294 85.5949 39.3758 86.0082 39.6219C86.4215 39.8762 86.8919 39.9999 87.4225 39.9999C87.9078 39.9999 88.3613 39.8843 88.7746 39.6599C89.1964 39.4368 89.5246 39.0968 89.752 38.6578C89.9798 38.2189 90.095 37.7172 90.095 37.1541C90.095 36.5914 89.9862 36.106 89.7672 35.6738C89.5479 35.2345 89.2349 34.8945 88.8216 34.6551C88.4063 34.4094 87.9379 34.2856 87.4225 34.2856C86.6324 34.2856 85.9913 34.548 85.4911 35.0646C84.9906 35.5894 84.7412 36.3056 84.7412 37.2151V37.2168ZM85.5077 37.2317C85.5077 36.3999 85.6952 35.8056 86.0785 35.4507C86.4533 35.0958 86.9068 34.9192 87.4306 34.9192C87.7973 34.9192 88.1268 35.0117 88.4232 35.1965C88.7196 35.3816 88.947 35.6439 89.1028 35.9758C89.2515 36.3073 89.3285 36.7002 89.3285 37.1558C89.3285 37.8656 89.1494 38.4121 88.7899 38.7982C88.4299 39.1843 87.9696 39.3758 87.4141 39.3758C86.8585 39.3758 86.413 39.1826 86.0535 38.8046C85.6851 38.4185 85.506 37.8951 85.506 37.2317H85.5077ZM91.7854 39.9073H92.4968V35.5663L95.4356 39.9073H96.1937V34.3877H95.4826V38.7206L92.5438 34.3877H91.7854V39.9073ZM98.1568 39.9073H101.66V39.2602H98.9V34.3877H98.1568V39.9073ZM103.411 39.9073H104.154V34.3877H103.411V39.9073ZM106.194 39.9073H106.905V35.5663L109.844 39.9073H110.602V34.3877H109.891V38.7206L106.952 34.3877H106.194V39.9073ZM112.612 39.9073H116.786V39.2602H113.353V37.3785H116.45V36.7317H113.353V35.0433H116.661V34.3877H112.61V39.9073H112.612Z" fill="#002E5E"/>
</g>
<defs>
<clipPath id="clip0_2083_633">
<rect width="122" height="40" fill="white"/>
</clipPath>
</defs>
</svg>
