<?xml version="1.0" encoding="utf-8"?>
<!-- Generator: Adobe Illustrator 25.0.1, SVG Export Plug-In . SVG Version: 6.00 Build 0)  -->
<svg version="1.1" id="Layer_1" xmlns="http://www.w3.org/2000/svg" xmlns:xlink="http://www.w3.org/1999/xlink" x="0px" y="0px"
	 viewBox="0 0 467.2 121.7" style="enable-background:new 0 0 467.2 121.7;" xml:space="preserve">
<style type="text/css">
	.st0{fill:#FFFFFF;}
	.st1{fill:#1D1D1B;}
	.st2{fill-rule:evenodd;clip-rule:evenodd;fill:#FFFFFF;}
	.st3{fill-rule:evenodd;clip-rule:evenodd;fill:#1D1D1B;}
	.st4{fill-rule:evenodd;clip-rule:evenodd;fill:#EF7D00;}
	.st5{fill:#EF7D00;}
	.st6{fill:#231F20;}
	.st7{fill:none;stroke:#000000;stroke-width:2.93;stroke-miterlimit:10;}
</style>
<g>
	<ellipse class="st0" cx="59.5" cy="61.5" rx="57.1" ry="59.1"/>
	<path class="st1" d="M59.5,121.2c-31.8,0-57.6-26.9-57.4-59.8C2.3,28.6,27.9,1.7,59.7,1.7s57.6,26.7,57.6,59.8
		C117.1,94.5,91.3,121.2,59.5,121.2z M59.5,3C28.3,3,3,29.2,3,61.6s25.5,58.5,56.7,58.5s56.5-26.2,56.5-58.7C116,29.2,90.7,3,59.5,3
		z"/>
	<path class="st2" d="M59.5,15.7c24.4,0,44.1,20.6,44.1,45.8s-19.9,45.8-44.2,45.8S15.3,86.8,15.3,61.5S35.2,15.7,59.5,15.7
		L59.5,15.7z"/>
	<path class="st3" d="M59.5,16.9c23.7,0,43,20,42.8,44.5c0,24.7-19.2,44.5-43,44.5c-23.6,0-42.8-20-42.8-44.5S35.8,16.9,59.5,16.9z"
		/>
	<path class="st4" d="M29.3,29.8l-6.7,54.5C12.5,66.6,15.3,44.2,29.3,29.8z"/>
	<path class="st4" d="M24.6,87.4L42,20.8c5.6-2.5,11.5-3.9,17.5-3.9l0,0c3.3,0,6.5,0.3,9.8,1.1L28.2,92
		C26.9,90.7,25.7,89.1,24.6,87.4z"/>
	<path class="st4" d="M29.7,93.6l52.8-69.7c7.5,5,13.3,12.1,16.8,20.6L33.1,96.7C32.1,95.8,30.8,94.7,29.7,93.6z"/>
	<path class="st4" d="M35,98.1l67.4-39.6c0,0.9,0.2,2,0.2,2.9c0,9.2-2.8,18.2-7.9,25.6l-53.5,14.6C39,100.7,37,99.5,35,98.1z"/>
	<path class="st4" d="M46.6,104l35.2-4.3C71.3,106.2,58.4,107.9,46.6,104L46.6,104z"/>
	<path class="st1" d="M59.5,106.6c-24.1,0-43.5-20.2-43.5-45.2c0-24.8,19.6-45,43.6-45s43.5,20.2,43.5,45.2
		C103,86.5,83.6,106.6,59.5,106.6z M59.5,17.5c-23.4,0-42.4,19.7-42.4,44.1c0,24.2,19.1,43.9,42.5,43.9s42.4-19.7,42.4-43.9
		C101.9,37.3,83,17.5,59.5,17.5z"/>
	<path d="M7.4,66.6c0.6,0.3,1.2,0.5,1.9,0.5l0,0c0.9,0,1.9-0.5,2.5-1.1c0.6-0.8,1.1-1.7,1.1-2.6c0-2-1.6-3.7-3.6-3.7l0,0
		c-0.9,0-1.9,0.3-2.5,1.1c-0.6,0.8-1.1,1.7-1.1,2.6c0,0.6,0.2,1.2,0.5,1.9C6.3,65.8,6.8,66.3,7.4,66.6z M9.1,60.4
		c0.5,0,0.9,0.2,1.4,0.3c0.5,0.3,0.8,0.6,1.1,1.1c0.3,0.5,0.3,0.9,0.3,1.6c0,1.6-1.2,2.8-2.6,2.9l0,0l0,0c-0.5,0-0.9-0.2-1.4-0.3
		c-0.5-0.3-0.8-0.6-0.9-1.1c-0.3-0.5-0.3-0.9-0.3-1.4l0,0c0-0.5,0.2-1.1,0.3-1.6c0.3-0.5,0.6-0.8,0.9-1.1
		C8.2,60.5,8.6,60.4,9.1,60.4L9.1,60.4z"/>
	<polygon points="13,55.6 6.8,51.5 6.6,51.5 6.4,52.5 11.1,55.4 5.8,57 5.7,57.7 13,55.9 	"/>
	<polygon points="12.3,34.9 11.9,35.9 13.6,38.7 10.5,39 10.5,39 10,39.9 14.4,39.4 17.3,40.8 17.6,40.1 14.7,38.7 	"/>
	<polygon points="14.5,45.5 8.8,43.3 8.5,44.1 15,46.6 16.1,43.3 15.4,43 	"/>
	<polygon points="12,67.7 12.5,70.3 6.4,71.2 6.6,72.2 13.3,71.1 12.8,67.7 	"/>
	<polygon points="13,50.5 10.6,49.8 11.4,46.7 10.6,46.4 9.9,49.7 8,49.1 8.8,45.9 8,45.8 6.9,49.7 13.6,51.5 14.5,47.5 13.7,47.3 	
		"/>
	<path d="M52.9,13.5c0.3,0.2,0.6,0.2,0.9,0.2h0.3c0.5,0,0.9-0.3,1.4-0.8c0.3-0.5,0.5-0.9,0.5-1.4c0-0.3-0.2-0.8-0.5-1.1
		c-0.3-0.5-0.8-0.8-1.4-1.1s-0.9-0.5-0.9-0.6c-0.2-0.2-0.3-0.3-0.3-0.5c0-0.2-0.2-0.3-0.2-0.5c0-0.2,0-0.5,0.2-0.6
		C53,7,53.2,6.8,53.5,6.8c0.2,0,0.3,0,0.6,0.2c0.3,0.2,0.5,0.3,0.8,0.6l0,0L55.5,7l0,0c-0.3-0.3-0.6-0.6-0.9-0.8
		c-0.3-0.2-0.6-0.2-0.9-0.2c-0.3,0-0.6,0.2-0.8,0.3c-0.3,0.2-0.5,0.5-0.6,0.6c-0.5,0.6-0.6,0.9-0.5,1.2c0,0.5,0.2,0.8,0.5,1.1
		c0.3,0.3,0.8,0.6,1.2,0.8c0.5,0.3,0.9,0.6,1.2,0.9c0,0.3,0.2,0.5,0.2,0.8c0,0.2,0,0.3-0.2,0.6c-0.2,0.2-0.2,0.3-0.3,0.5
		c-0.2,0-0.3,0-0.5,0.2c-0.5,0-0.9-0.3-1.4-0.9l0,0l-0.6,0.5l0,0C52.1,13,52.4,13.4,52.9,13.5z"/>
	<polygon points="48.4,13.8 47.7,11.3 50.8,10.7 50.7,9.8 47.6,10.6 47.3,8.5 50.4,7.9 50.2,7 46.3,7.9 46.2,7.9 47.7,14.8 
		47.7,14.9 51.6,14 51.5,13.2 	"/>
	<path d="M83.9,20l0.3-7.8l0,0l-0.2-0.2L78,16.9l0.8,0.5l1.9-1.6l2.5,1.2v2.5L83.9,20z M83.3,13.7l-0.2,2.5l-1.9-0.9L83.3,13.7z"/>
	<path d="M31.4,23.1l0.6-0.5L30.2,20l0.2-0.2l3.7,1.2l0,0l0.8-0.6l-3.7-1.2c0.3-0.3,0.6-0.6,0.9-0.9c0.2-0.3,0.3-0.6,0.3-1.1
		c0-0.3-0.2-0.8-0.3-1.1c-0.3-0.3-0.6-0.6-0.9-0.8c-0.5-0.2-0.8-0.2-1.2,0.2c-0.5,0.2-0.9,0.5-1.2,0.8l-1.1,0.8L31.4,23.1L31.4,23.1
		z M28.6,17.5l0.9-0.6c0.3-0.2,0.6-0.3,0.9-0.5c0.2,0,0.5,0,0.6,0c0.2,0,0.3,0.2,0.5,0.3c0.2,0.2,0.2,0.3,0.2,0.6
		c0,0.2,0,0.5-0.2,0.6c-0.2,0.3-0.5,0.5-0.8,0.6l-0.9,0.6L28.6,17.5z"/>
	<path d="M27.1,26.9l0.6-0.6l-2-2.5l0.3-0.3c0.5-0.3,0.9-0.8,1.2-1.2c0.3-0.3,0.5-0.8,0.3-1.2c0-0.5-0.2-0.8-0.5-1.1
		c-0.3-0.3-0.6-0.6-1.1-0.6c-0.5,0-0.8,0-1.1,0.2c-0.5,0.3-0.9,0.6-1.2,0.9l-1.1,0.9L27.1,26.9L27.1,26.9z M23.8,21.4l0.9-0.8
		c0.3-0.2,0.5-0.5,0.8-0.6c0.2,0,0.5,0,0.6,0c0.2,0,0.3,0.2,0.5,0.3c0.2,0.3,0.2,0.6,0.2,0.8c0,0.2,0,0.5-0.2,0.6
		c-0.2,0.3-0.5,0.5-0.6,0.8l-0.8,0.6L23.8,21.4z"/>
	<path d="M36.2,18.6c0.3,0.2,0.8,0.2,1.1,0.2c0.6,0,1.1-0.2,1.7-0.5c1.7-0.9,2.5-3.1,1.7-5c-0.5-0.9-1.2-1.6-2.2-1.9
		c-0.9-0.3-2-0.2-2.9,0.3l0,0c-1.1,0.6-1.9,1.9-1.9,3.1c0,0.6,0.2,1.4,0.5,1.9C34.5,17.7,35.3,18.3,36.2,18.6z M34.5,14.9
		c0-0.5,0.2-0.9,0.5-1.4c0.3-0.5,0.6-0.8,1.1-0.9c0.5-0.3,0.9-0.3,1.4-0.3s0.9,0.2,1.4,0.5c0.8,0.6,1.2,1.6,1.2,2.6
		c0,0.5-0.2,0.9-0.5,1.4c-0.3,0.5-0.6,0.8-1.1,0.9c-1.4,0.8-2.9,0.2-3.7-1.2l0,0C34.7,16,34.5,15.4,34.5,14.9z"/>
	<polygon points="74.4,10.3 76.9,16.5 76.9,16.5 77.2,16.6 79.2,9.8 78.6,9.6 77.1,14.6 74.4,8.2 74.1,8.1 72.1,14.9 72.9,15.2 	"/>
	<polygon points="43.4,16.3 44.2,16 43.2,12.7 45.7,11.8 45.4,11 42.9,12 42.3,9.9 44.9,9.2 44.6,8.4 41.2,9.5 43.4,16.1 	"/>
	<path d="M67.3,14.1c0.2,0,0.5,0,0.6,0c2,0,3.6-1.7,3.6-3.7c0-0.8-0.3-1.6-0.6-2.2c-0.6-0.8-1.4-1.4-2.3-1.6l0,0
		C67.3,6.4,66,7,65.1,7.9c-0.5,0.5-0.6,1.1-0.8,1.7c-0.2,0.9,0,2,0.6,2.8C65.4,13.4,66.4,14,67.3,14.1z M65.1,9.9
		c0.2-0.5,0.3-0.9,0.6-1.4C66,8.1,66.5,7.9,67,7.6c0.3-0.2,0.6-0.2,0.9-0.2c0.2,0,0.3,0,0.5,0c0.5,0.2,0.9,0.3,1.2,0.6
		c0.8,0.6,1.1,1.7,0.9,2.8c-0.2,0.5-0.3,0.9-0.6,1.4c-0.3,0.3-0.8,0.6-1.2,0.8s-0.9,0.2-1.4,0.2C65.9,13,65,11.5,65.1,9.9L65.1,9.9
		L65.1,9.9z"/>
	<polygon points="87.9,21.9 85.8,20.3 88.9,15.1 88.2,14.6 84.7,20.6 84.5,20.6 87.5,22.5 	"/>
	<path d="M59.1,9.2c-0.6-0.5-0.8-0.6-0.9-0.6C58,8.4,58,8.2,57.8,8.1c0-0.2,0-0.3,0-0.5c0-0.2,0-0.5,0.2-0.6
		c0.2-0.2,0.3-0.3,0.6-0.3c0.2,0,0.3,0,0.6,0.2c0.3,0.2,0.5,0.5,0.6,0.6l0,0L60.5,7l0,0c-0.3-0.3-0.6-0.6-0.9-0.9
		c-0.3-0.2-0.6-0.3-0.9-0.3l0,0c-0.3,0-0.6,0.2-0.9,0.3c-0.3,0.2-0.5,0.3-0.6,0.6c-0.2,0.3-0.2,0.6-0.2,0.9c0,0.5,0.2,0.8,0.3,1.1
		c0.3,0.3,0.6,0.6,1.1,0.9c0.5,0.3,0.8,0.6,1.1,1.1c0.2,0.2,0.2,0.5,0.2,0.6c0,0.5-0.2,0.8-0.6,0.9c-0.2,0.2-0.5,0.2-0.6,0.2
		c-0.5,0-0.9-0.3-1.4-1.1l0,0l-0.8,0.5l0,0c0.2,0.5,0.6,0.8,0.9,1.1c0.3,0.2,0.8,0.3,1.1,0.3l0,0c0.5,0,1.1-0.2,1.4-0.6
		c0.3-0.3,0.6-0.9,0.6-1.4s-0.2-0.8-0.3-1.1C59.8,9.9,59.5,9.5,59.1,9.2z"/>
	<polygon points="63.1,6.4 63.1,6.4 62.3,6.2 61.9,13.2 61.9,13.4 62.6,13.4 	"/>
	<path d="M113.5,62.1c-0.2-0.3-0.3-0.5-0.6-0.6c-0.3-0.2-0.5-0.3-0.8-0.3l0,0c-0.3,0-0.8,0.2-1.1,0.3c-0.3,0.3-0.6,0.6-0.9,1.1
		c-0.3,0.5-0.6,0.8-1.1,1.1c-0.2,0.2-0.5,0.2-0.6,0.2c-0.2,0-0.3,0-0.5-0.2c-0.2-0.2-0.3-0.3-0.3-0.5c-0.2-0.2-0.2-0.5-0.2-0.6
		c0-0.5,0.3-0.9,1.1-1.4l0,0l-0.5-0.8l0,0c-0.5,0.2-0.8,0.6-1.1,0.9c-0.2,0.3-0.3,0.8-0.3,1.2c0,0.6,0.2,1.1,0.5,1.6
		c0.3,0.5,0.8,0.6,1.2,0.6l0,0c0.3,0,0.8-0.2,1.1-0.3c0.5-0.3,0.9-0.8,1.2-1.2c0.5-0.6,0.6-0.8,0.6-0.9c0.2-0.2,0.3-0.3,0.5-0.3
		c0.2,0,0.3-0.2,0.5-0.2c0.2,0,0.5,0.2,0.6,0.3c0.2,0.2,0.2,0.5,0.2,0.6c0,0.2,0,0.5-0.2,0.6c-0.2,0.3-0.5,0.5-0.6,0.6l0,0l0.5,0.8
		l0,0c0.3-0.3,0.6-0.6,0.9-0.9c0.2-0.3,0.3-0.6,0.3-0.9C113.7,62.7,113.7,62.4,113.5,62.1z"/>
	<polygon points="106.6,66 106.6,66.9 113.2,67.4 113.4,67.4 113.4,66.6 106.7,66 	"/>
	<path d="M100.7,32.4l3.3-2.6l-0.5-0.6l-3.3,2.6c-0.3,0.3-0.5,0.5-0.8,0.6c-0.2,0.2-0.5,0.2-0.6,0.2l0,0c-0.2,0-0.5,0-0.6-0.2
		s-0.3-0.3-0.5-0.5c-0.2-0.2-0.3-0.5-0.3-0.8c-0.2-0.5,0-0.9,0.3-1.2c0.2-0.2,0.5-0.5,0.6-0.6l3.3-2.6l-0.5-0.6l-3.3,2.6
		c-0.5,0.3-0.8,0.6-1.1,1.1c-0.3,0.5-0.3,0.9-0.3,1.4s0.3,1.1,0.6,1.4c0.3,0.5,0.8,0.6,1.1,0.8c0.2,0,0.3,0,0.5,0
		c0.3,0,0.5,0,0.8-0.2C99.9,33.1,100.4,32.8,100.7,32.4z"/>
	<polygon points="106.2,54.3 107,54.2 106.6,51.1 108.9,50.5 109.5,53.7 110.3,53.6 109.7,50.3 111.7,50 112.3,53.2 113.1,53.1 
		112.3,49.1 105.5,50.3 	"/>
	<polygon points="108,36.9 107.6,36.2 103.3,38.8 105.5,32.3 105.5,32.3 105.3,32.1 99.4,35.6 99.3,35.7 99.7,36.3 104.1,33.8 
		101.9,40.2 102.1,40.5 	"/>
	<polygon points="112.1,70.3 106.2,69.2 106.2,69.2 106.1,70 112,71.1 111.8,72.6 112.6,72.8 113.2,68.9 113.2,68.9 112.5,68.8 	"/>
	<path d="M106.4,56.3l3.1-0.3v0.3l-2.9,2.8l0,0l0.2,1.1l2.9-2.8c0,0.5,0.2,0.8,0.3,1.2c0.2,0.3,0.5,0.6,0.8,0.8
		c0.3,0.2,0.6,0.2,1.1,0.2c0.5,0,0.8-0.2,1.1-0.5c0.3-0.3,0.5-0.6,0.5-1.1s0-1.1,0-1.6l-0.2-1.6l-6.8,0.6L106.4,56.3z M111.1,58.5
		c-0.2-0.2-0.3-0.3-0.5-0.5c-0.2-0.3-0.2-0.6-0.2-0.9l-0.2-1.1l2.2-0.2l0.2,1.1c0,0.3,0,0.6,0,0.9c0,0.2-0.2,0.3-0.3,0.5
		c-0.2,0.2-0.3,0.2-0.6,0.2C111.5,58.7,111.2,58.7,111.1,58.5z"/>
	<polygon points="105.3,74 105,74.8 108.3,75.8 111.1,78.9 111.4,77.9 109.2,75.6 112.3,74.7 112.5,73.6 108.4,75 	"/>
	<polygon points="111.8,47 111.5,46.3 105.9,45.8 110,41.9 110.1,41.9 109.8,41 104.2,46.3 104.2,46.3 104.4,46.6 111.7,47 	"/>
	<polygon points="109.2,39.6 108.9,38.8 102.7,41.8 102.5,41.9 103,42.7 109,39.6 	"/>
	<path d="M83.6,102.9l-0.2,0.2l0.8,7.9l0.8-0.5l-0.2-2.5l2.5-1.6l2,1.4l0.8-0.5L83.6,102.9L83.6,102.9z M86.4,105.9l-1.9,1.1
		l-0.2-2.5L86.4,105.9z"/>
	<path d="M62.6,116.4c-0.2-0.8-0.3-1.6-0.3-2.3c0-0.9,0-1.7,0.2-2.6c0.2-0.8,0.3-1.6,0.6-2.2v-0.2h-0.9l0,0
		c-0.3,0.8-0.5,1.6-0.6,2.3c-0.2,0.9-0.2,1.7-0.2,2.6c0,0.8,0.2,1.6,0.3,2.3c0.2,0.6,0.3,1.4,0.6,2l0,0h0.9v-0.2
		C63.1,117.8,62.8,117,62.6,116.4z"/>
	<polygon points="64.7,109.3 65.4,109.1 66,116.3 65.1,116.3 	"/>
	<path d="M78.3,107.3c-0.5-0.5-1.2-0.6-1.9-0.6l0,0c-0.8,0-1.4,0.2-2.2,0.5l-1.4,0.5l2.3,6.7l0,0l2-0.8c0.6-0.2,1.2-0.6,1.7-1.1
		c0.3-0.5,0.6-0.9,0.8-1.6C80,109.6,79.4,108.2,78.3,107.3L78.3,107.3z M75.7,113.3l-1.7-5.1l0.3-0.2c0.6-0.3,1.2-0.5,2-0.5
		c0.5,0,1.1,0.2,1.6,0.5c0.5,0.3,0.8,0.9,0.9,1.4c0.2,0.5,0.3,1.1,0.2,1.7c-0.2,0.5-0.5,0.9-0.8,1.2c-0.5,0.3-1.1,0.6-1.7,0.8
		L75.7,113.3z"/>
	<polygon points="71,108 72.1,113.2 66.8,109 66.8,109 66.5,109.1 67.9,116 67.9,116.1 68.7,115.8 67.8,110.8 72.9,115 73,115 
		73.2,114.9 71.8,107.9 	"/>
	<path d="M29.7,101.1c0.6-0.6,0.6-1.6,0.2-2.3c-0.3-0.5-0.8-0.8-1.1-1.1l-1.1-0.9l-4.5,5.4l0.6,0.6l2-2.5l0.3,0.3
		c0.5,0.5,0.9,0.8,1.4,1.1c0.3,0.2,0.8,0.3,1.2,0.2C29,101.5,29.4,101.4,29.7,101.1z M29.3,99.8c0,0.2-0.2,0.5-0.3,0.6
		c-0.2,0.2-0.3,0.3-0.5,0.3c-0.2,0-0.5,0-0.6,0c-0.3-0.2-0.6-0.3-0.8-0.6l-0.8-0.8l1.4-1.7l0.8,0.8c0.3,0.2,0.5,0.5,0.6,0.8
		C29.3,99.5,29.3,99.7,29.3,99.8L29.3,99.8z"/>
	<path d="M91.8,105.4c-0.3-0.8-0.8-1.6-1.2-2.2c-0.5-0.6-0.9-1.2-1.6-1.9c-0.5-0.5-1.1-0.9-1.6-1.2l0,0l-0.8,0.5h0.2
		c0.6,0.3,1.1,0.8,1.6,1.2c0.6,0.6,1.1,1.1,1.6,1.9c0.5,0.6,0.9,1.4,1.2,2.2c0.3,0.8,0.6,1.4,0.8,2.2v0.2l0.8-0.6l0,0
		C92.4,106.9,92.1,106.2,91.8,105.4z"/>
	<polygon points="80,104.8 79.2,105.1 82,111.6 82.8,111.3 	"/>
	<polygon points="40.7,105.6 38.4,110.2 36.9,103.5 36.9,103.4 36.6,103.4 33.5,109.6 33.5,109.6 34.2,110.1 36.4,105.4 38,112.1 
		38,112.1 38.3,112.2 41.4,105.9 	"/>
	<path d="M34.7,102.3l-2.3,3.6c-0.2,0.3-0.3,0.6-0.6,0.8c-0.2,0.2-0.3,0.3-0.6,0.3c-0.2,0-0.5,0-0.6,0c-0.2,0-0.5-0.2-0.6-0.2
		c-0.2-0.2-0.3-0.3-0.5-0.6c-0.2-0.2-0.2-0.5-0.2-0.6c0-0.3,0-0.5,0.2-0.6c0.2-0.3,0.3-0.5,0.5-0.8l2.3-3.6l-0.6-0.5l-2.3,3.6
		c-0.3,0.5-0.5,0.8-0.8,1.2c-0.2,0.5-0.2,0.9,0.2,1.4c0.2,0.5,0.5,0.9,0.9,1.2c0.3,0.3,0.8,0.5,1.2,0.5H31c0.5,0,0.8-0.2,1.1-0.5
		c0.3-0.3,0.8-0.8,0.9-1.2l2.3-3.6L34.7,102.3z"/>
	<path d="M44.3,106.8l-1.4,4.5c-0.2,0.3-0.2,0.8-0.5,1.1c-0.2,0.3-0.6,0.5-0.9,0.3c-0.2,0-0.3-0.2-0.3-0.2c-0.3-0.2-0.5-0.5-0.6-0.8
		l0,0l-0.6,0.5l0,0c0.2,0.3,0.5,0.6,0.6,0.8s0.5,0.3,0.8,0.5c0.2,0,0.5,0.2,0.6,0.2c0.5,0,0.9-0.2,1.1-0.6c0.3-0.5,0.5-0.9,0.6-1.4
		l1.4-4.5L44.3,106.8z"/>
	<path d="M56.3,113c-0.2-0.2-0.5-0.3-0.6-0.5c0.5-0.3,0.9-0.8,0.9-1.4c0-0.3,0-0.6-0.2-0.9c-0.2-0.3-0.3-0.6-0.6-0.8
		c-0.3-0.2-0.8-0.3-1.2-0.3l-1.4-0.2l-0.9,7l1.9,0.3c0.2,0,0.3,0,0.5,0c0.5,0,0.9-0.2,1.2-0.5c0.5-0.3,0.8-0.8,0.8-1.4
		c0-0.3,0-0.6,0-0.8C56.6,113.5,56.4,113.3,56.3,113z M53.8,112.8c0.5,0,0.8,0.2,1.1,0.3c0.3,0.2,0.5,0.3,0.8,0.6
		c0.2,0.2,0.2,0.5,0.2,0.8c0,0.2-0.2,0.5-0.3,0.6c-0.2,0.2-0.3,0.3-0.6,0.3c-0.3,0-0.8,0-1.1,0l-0.6-0.2l0.3-2.5H53.8z M55.5,111.8
		c-0.2,0.2-0.3,0.3-0.5,0.3c-0.3,0-0.6,0-0.9,0h-0.3l0.3-2l0.8,0.2c0.3,0,0.6,0.2,0.9,0.3c0.2,0.2,0.3,0.5,0.2,0.8
		C55.6,111.4,55.6,111.6,55.5,111.8z"/>
	<path d="M49.1,108.2l-4.8,6.2l0.9,0.2l1.6-2l2.8,0.6l0.5,2.5l0.9,0.2l-1.6-7.8L49.1,108.2z M49.3,112.4l-2-0.5l1.6-2L49.3,112.4z"
		/>
	<path class="st3" d="M17.3,88.5c1.1,0,1.9,0.9,1.9,2c0,1.1-0.9,2-1.9,2c-1.1,0-1.9-0.9-1.9-2C15.3,89.4,16.2,88.5,17.3,88.5z"/>
	<path class="st1" d="M17.3,92.7c-1.1,0-2-0.9-2-2.2c0-1.2,0.9-2.2,2-2.2s2,0.9,2,2.2C19.3,91.6,18.4,92.7,17.3,92.7z M17.3,88.6
		c-0.9,0-1.7,0.8-1.7,1.9c0,1.1,0.8,1.9,1.9,1.9c0.9,0,1.7-0.8,1.7-1.9C19,89.4,18.2,88.6,17.3,88.6z"/>
	<path class="st3" d="M101.3,88.5c1.1,0,1.9,0.9,1.9,2c0,1.1-0.9,2-1.9,2c-1.1,0-1.9-0.9-1.9-2C99.4,89.4,100.2,88.5,101.3,88.5z"/>
	<path class="st1" d="M101.3,92.7c-1.1,0-2-0.9-2-2.2s0.9-2.2,2-2.2s2,0.9,2,2.2C103.5,91.6,102.5,92.7,101.3,92.7z M101.3,88.6
		c-0.9,0-1.7,0.8-1.7,1.9c0,1.1,0.8,1.9,1.9,1.9c0.9,0,1.7-0.8,1.7-1.9C103.1,89.4,102.4,88.6,101.3,88.6z"/>
	<path class="st5" d="M148.2,40.8h19.6v11.3h-30.9V4h11.3C148.2,4,148.2,40.8,148.2,40.8z"/>
	<path class="st5" d="M193.2,3.6c11,0,16.5,9,16.3,17.5c-0.2,8.4-5.6,16.8-16.3,16.8h-7.5v14.3h-11.3V3.6H193.2z M193.2,26.9
		c3.6,0,5.3-2.9,5.3-5.7s-1.7-5.9-5.3-5.9h-7.5v11.6H193.2z"/>
	<path class="st5" d="M215.8,36.6V4h11.3v32.6c0,7.3,13.2,7.1,13.2,0V4h11.3v32.6c0,10.9-9,16.3-18,16.1
		C224.7,52.6,215.8,47.5,215.8,36.6z"/>
	<path class="st6" d="M283.5,3.3c13.2-0.2,23.9,10.7,24.1,24.4c0,0.2,0,0.3,0,0.5c0,14-10.7,24.7-24.1,24.7
		c-13.3,0-24.1-10.6-24.1-24.7c-0.2-13.7,10.4-24.7,23.4-24.8C283.2,3.3,283.3,3.3,283.5,3.3z M283.2,41.8c6.5,0,12.9-4.5,12.9-13.5
		c0-9.2-6.5-13.8-12.9-13.7c-6.4,0.2-12.4,4.7-12.4,13.7S277,41.6,283.2,41.8z"/>
	<path class="st6" d="M322.3,14.9v3.7c2.5-3.3,6.8-4.2,10.6-4.2c10.2,0.2,13,7.9,12.9,17.2v20.5h-10.6V31.7c0-5-2.8-7.3-5.6-7.3
		c-3.9,0.2-7,3.4-6.8,7.5V52h-11V14.8L322.3,14.9z"/>
	<path class="st6" d="M362.7,4v48.1h-10.6V4C352.1,4,362.7,4,362.7,4z"/>
	<path class="st6" d="M374.5,0.5c3.1,0,6.5,2,6.5,6.4c0,4-2.9,5.9-6.1,6.1c-3.1,0-6.5-1.9-6.5-6.1S371.5,0.5,374.5,0.5z M369.5,14.9
		v37.3H380V14.9C380,14.9,369.5,14.9,369.5,14.9z"/>
	<path class="st6" d="M397.6,14.9v3.7c2.5-3.3,6.8-4.2,10.6-4.2c10.2,0.2,13,7.9,12.9,17.2v20.5h-10.6V31.7c0-5-2.8-7.3-5.6-7.3
		c-3.9,0.2-7,3.4-6.8,7.5V52h-11V14.8L397.6,14.9z"/>
	<path class="st6" d="M463.2,37.7h-25.8c1.2,3.4,4.5,5.1,7.8,5.3c2.3,0,4.5-0.8,6.1-2.5h11.3c-2.8,8.2-10.4,12.3-17.8,12.1
		c-9.2-0.2-18.2-6.5-18.2-19.1c0-12.7,9.3-19.1,18.8-19.1c9.2,0,18.3,6.4,18.3,19.1C463.7,34.9,463.5,36.3,463.2,37.7z M452.2,29.3
		c-0.9-3.7-3.9-5.4-7.3-5.4c-3.3-0.2-6.2,2.2-7,5.4H452.2z"/>
	<line class="st7" x1="464.6" y1="66.3" x2="135.6" y2="66.3"/>
	<g>
		<path class="st6" d="M146.6,82.3c-0.3-1.6-2-2.3-3.6-2.3c-1.2,0-2.3,0.5-3.1,1.4c-0.3,0.5-0.5,1.1-0.5,1.7c0.2,1.9,2,2,3.9,2.2
			c2.3,0.3,5.3,0.9,6.1,3.9c0,0.5,0.2,0.8,0.2,1.2c0,3.4-3.3,5.4-6.5,5.4c-2.6,0-5.9-1.7-6.2-4.8v-0.5h2.5v0.3v-0.2
			c0.2,1.7,2.2,2.5,3.7,2.5c1.9,0,3.9-1.1,3.9-2.9c0-0.2,0-0.5-0.2-0.6c-0.3-1.4-2-1.6-3.9-1.7c-2.6-0.3-5.9-0.9-6.2-4.7l0,0
			c-0.2-1.2,0.2-2.5,0.9-3.4c1.2-1.6,3.3-2.5,5.3-2.3c2.6,0,5.4,1.4,5.9,4.7L146.6,82.3z"/>
		<path class="st6" d="M166.3,81.9v14h-2.5V94c-0.9,1.6-3.1,2-4.8,2.2c-4.7,0-7.1-3.4-7.1-7.3s2.6-7.1,7.1-7.1c1.7,0,3.7,0.5,4.8,2
			v-1.9H166.3z M159,83.7c-2.5-0.2-4.7,1.9-4.7,4.5c0,0.2,0,0.3,0,0.3c-0.2,2.8,1.9,5.1,4.5,5.1c2.6,0.2,4.8-2,5-4.8
			c0-0.2,0-0.3,0-0.3c0-2.6-2-5-4.7-5C159.2,83.7,159,83.7,159,83.7z"/>
		<path class="st6" d="M172.5,81.6v2c0.8-1.2,2.3-2,3.7-2c1.9,0,3.6,0.5,4.5,2.5c0.9-1.6,2.5-2.5,4.3-2.5c3.7,0,5.3,2.6,5.3,6.2v7.9
			h-2.5v-7.9c0-2-0.5-3.9-2.8-3.9c-2.3,0-3.6,1.7-3.6,4v7.9H179v-7.8c0-2-0.8-4-2.9-4c-2.2,0-3.7,1.6-3.7,4.2v7.6h-2.5V81.7
			L172.5,81.6z"/>
		<path class="st6" d="M207.1,89.3h-11.3c0,2.8,2.5,4.3,4.5,4.3c1.7,0.2,3.3-0.8,4-2.3h2.5c-0.9,2.8-3.6,4.7-6.5,4.5
			c-3.4,0-7-2.5-7-7.1c0-4.7,3.4-7.1,7-7.1c3.3,0,6.5,2.2,6.8,6.5C207.1,88.5,207.1,89,207.1,89.3z M204.7,87.3
			c-0.5-2.5-2.3-3.4-4.3-3.4s-3.9,0.9-4.5,3.4H204.7z"/>
		<path class="st6" d="M223,77.5c5.7,0,8.5,4.7,8.5,9.2c0,4.5-2.9,9-8.5,9h-6.2V77.5H223z M223,93c4,0,6.1-3.3,6.1-6.4
			c0-3.3-2-6.5-6.1-6.5h-3.7V93H223z"/>
		<path class="st6" d="M247.6,89.3h-11.3c0,2.8,2.5,4.3,4.5,4.3c1.7,0.2,3.3-0.8,4-2.3h2.5c-0.9,2.8-3.6,4.7-6.5,4.5
			c-3.4,0-7-2.5-7-7.1c0-4.7,3.4-7.1,7-7.1c3.3,0,6.5,2.2,6.8,6.5C247.6,88.5,247.6,89,247.6,89.3z M245.2,87.3
			c-0.5-2.5-2.3-3.4-4.3-3.4c-2,0-3.9,0.9-4.5,3.4H245.2z"/>
		<path class="st6" d="M256.8,101.1c-3.4,0-6.5-1.4-6.5-4.5h2.3c0,1.7,2.3,2.3,4,2.3c2.2,0,4.5-1.1,4.5-3.7v-1.6
			c-1.2,1.6-2.9,2-4.5,2c-4.5,0-7.1-3.1-7.1-6.8c0-3.7,2.5-7.3,7.1-7.3c1.7,0,3.6,0.6,4.5,2v-1.9h2.3v13.3
			C263.8,99.6,260.2,101.1,256.8,101.1z M261.3,88.4c0.2-2.3-1.6-4.5-3.9-4.7c-0.2,0-0.3,0-0.5,0c-2.6-0.2-4.8,2-4.8,4.7
			c0,0.2,0,0.2,0,0.3c0,2.5,1.9,4.7,4.3,4.7c0.2,0,0.2,0,0.3,0C259.8,93.5,261.3,91,261.3,88.4L261.3,88.4z"/>
		<path class="st6" d="M269.8,81.9v1.7c1.2-1.9,3.3-2.3,5.4-1.9v2.2c-2.2-0.8-4.5,0.6-5.3,2.8c-0.2,0.5-0.2,0.9-0.2,1.4v7.6h-2.3
			v-14h2.3V81.9z"/>
		<path class="st6" d="M290.6,89.3h-11.3c0,2.8,2.5,4.3,4.5,4.3c1.7,0.2,3.3-0.8,4-2.3h2.5c-0.9,2.8-3.6,4.7-6.5,4.5
			c-3.4,0-7-2.5-7-7.1c0-4.7,3.4-7.1,7-7.1c3.3,0,6.5,2.2,6.8,6.5C290.8,88.5,290.8,89,290.6,89.3z M288.2,87.3
			c-0.5-2.5-2.3-3.4-4.3-3.4c-1.9,0-3.9,0.9-4.5,3.4H288.2z"/>
		<path class="st6" d="M306.9,89.3h-11.3c0,2.8,2.5,4.3,4.5,4.3c1.7,0.2,3.3-0.8,4-2.3h2.5c-0.9,2.8-3.6,4.7-6.5,4.5
			c-3.4,0-7-2.5-7-7.1c0-4.7,3.4-7.1,7-7.1c3.3,0,6.5,2.2,6.8,6.5C307.1,88.5,307.1,89,306.9,89.3z M304.5,87.3
			c-0.5-2.5-2.3-3.4-4.3-3.4c-2,0-3.9,0.9-4.5,3.4H304.5z"/>
		<path class="st6" d="M308.2,98.3l1.9-4.7h2.6l-2.3,4.7H308.2z"/>
		<path class="st6" d="M322.1,95.7v-18h1.9l8.4,12.7V77.7h2.5v18h-2l-8.4-12.6v12.6H322.1z"/>
		<path class="st6" d="M345.6,96c-3.6,0-7.1-2.5-7.1-7.1s3.6-7.1,7.3-7.1c3.7,0,7.1,2.5,7.1,7.1S349.3,96,345.6,96z M345.6,93.7
			c2.6,0,4.8-2.2,4.8-5c0-2.8-2.2-5-4.8-5c-2.6,0-4.8,2.2-4.8,5l0,0c0,2.6,1.9,4.8,4.5,5C345.4,93.7,345.4,93.7,345.6,93.7
			L345.6,93.7z"/>
		<path class="st6" d="M357.5,81.9l1.1,3.9l1.6,5.9l2.6-9.8h2.2l2.6,9.8l1.6-5.9l1.1-3.9h2.5l-4.3,14h-1.9l-1.7-5.4l-1.2-4.2
			l-1.1,4.2l-1.7,5.4h-1.9l-4.3-14H357.5z"/>
		<path class="st6" d="M389.8,77.4c5,0,9,4.2,9,9.3s-4,9.3-9,9.3s-9-4.2-9-9.3l0,0C380.8,81.6,384.9,77.4,389.8,77.4L389.8,77.4z
			 M389.8,93.3c3.6,0,6.5-2.9,6.5-6.7S393.5,80,390,80c-3.6,0-6.5,2.9-6.5,6.7l0,0C383.3,90.4,386.3,93.3,389.8,93.3L389.8,93.3z"/>
		<path class="st6" d="M404.1,81.9v1.7c0.9-1.6,2.5-1.9,4.2-1.9c4,0,5.9,2.6,5.9,6.7v7.5h-2.5v-7.5c0-2.6-0.6-4.3-3.4-4.3
			c-2.6,0-4,1.9-4,4.3V96h-2.5V82h2.3V81.9z"/>
		<path class="st6" d="M420.2,95.7h-2.5v-18h2.5V95.7z"/>
		<path class="st6" d="M426.8,78.3c0,2-2.9,2-2.9,0C423.8,76.3,426.8,76.3,426.8,78.3z M426.6,81.7h-2.5v14.1h2.5V81.7z"/>
		<path class="st6" d="M433.1,81.9v1.7c0.9-1.6,2.5-1.9,4.2-1.9c4,0,5.9,2.6,5.9,6.7v7.5h-2.3v-7.5c0-2.6-0.6-4.3-3.6-4.3
			c-2.6,0-4,1.9-4,4.3V96h-2.5V82h2.3V81.9z"/>
		<path class="st6" d="M459.7,89.3h-11.3c0,2.8,2.5,4.3,4.5,4.3c1.7,0.2,3.3-0.8,4-2.3h2.5c-0.9,2.8-3.6,4.7-6.5,4.5
			c-3.4,0-7-2.5-7-7.1c0-4.7,3.4-7.1,7-7.1c3.3,0,6.5,2.2,6.8,6.5C459.7,88.5,459.7,89,459.7,89.3z M457.2,87.3
			c-0.5-2.5-2.3-3.4-4.3-3.4c-1.9,0-3.9,0.9-4.5,3.4H457.2z"/>
		<path class="st6" d="M465.1,94.3c0,0.9-0.8,1.6-1.7,1.4c-0.8,0-1.4-0.6-1.4-1.4c0-0.9,0.6-1.7,1.4-1.7s1.6,0.6,1.7,1.4
			C465.1,94.1,465.1,94.1,465.1,94.3z"/>
	</g>
	<g>
		<path class="st6" d="M339.5,116.6h5.3v1.7h-7v-12h7v1.7h-5.3v3.3h5.1v1.7h-5.1V116.6z"/>
		<path class="st6" d="M348.7,109.1v1.1c0.6-0.9,1.7-1.4,2.6-1.2c2.6,0,3.9,1.7,3.9,4.3v5h-1.6v-4.8c0-1.7-0.5-2.8-2.3-2.9
			c-1.4-0.2-2.6,1.1-2.6,2.5c0,0.2,0,0.3,0,0.3v5h-1.6v-9.2H348.7z"/>
		<path class="st6" d="M360,107.1v2h1.9v1.2H360v5.1c0,1.4,0.8,1.4,2,1.2v1.4c-2.2,0.2-3.6-0.3-3.6-2.6v-5.1h-1.2v-1.2h1.2v-1.7
			L360,107.1z"/>
		<path class="st6" d="M365.8,106.8c0,0.6-0.5,1.1-0.9,1.1c-0.6,0-0.9-0.5-0.9-1.1C363.7,105.6,365.8,105.6,365.8,106.8z M365.6,109
			h-1.6v9.2h1.6V109z"/>
		<path class="st6" d="M370.6,107.1v2h1.9v1.2h-1.9v5.1c0,1.4,0.8,1.4,2,1.2v1.4c-2.2,0.2-3.6-0.3-3.6-2.6v-5.1h-1.2v-1.2h1.2v-1.7
			L370.6,107.1z"/>
		<path class="st6" d="M376,118.3h-1.6v-11.8h1.6V118.3z"/>
		<path class="st6" d="M387.3,114.1h-7.5c0.2,1.6,1.4,2.9,2.9,2.8c1.1,0,2-0.5,2.6-1.6h1.7c-0.9,2.5-3.6,3.6-5.9,2.6
			c-1.7-0.8-2.8-2.5-2.9-4.3c0-2.6,2-4.7,4.7-4.7c2.3,0,4.2,1.9,4.5,4.2C387.5,113.6,387.5,113.8,387.3,114.1z M385.8,112.7
			c-0.3-1.4-1.4-2.3-2.8-2.2c-1.4-0.2-2.6,0.9-2.9,2.2H385.8z"/>
		<path class="st6" d="M397,106.5h1.6v11.8H397V117c-0.8,0.9-1.9,1.4-2.9,1.4c-3.1,0-4.7-2-4.7-4.8c0-2.8,1.7-4.7,4.7-4.7
			c1.1-0.2,2.2,0.5,2.9,1.4V106.5z M393.9,110.4c-1.7,0-3.1,1.4-3.1,3.3l0,0c0,1.7,1.4,3.1,3.1,3.1c1.7,0,2.9-1.6,2.9-3.3
			C396.8,111.8,395.6,110.5,393.9,110.4z"/>
		<path class="st6" d="M407.4,110.4c0.8-0.9,1.9-1.4,2.9-1.4c2.3-0.2,4.3,1.7,4.5,4.2c0,0.2,0,0.3,0,0.5c0,2.5-1.6,4.8-4.5,4.8
			c-1.1,0-2.2-0.5-2.9-1.4v1.2h-1.6v-11.8h1.6V110.4z M410.2,116.9c1.7,0.2,3.3-1.2,3.4-2.9c0.2-1.9-1.1-3.4-2.8-3.6
			c-1.7-0.2-3.3,1.2-3.4,2.9c0,0.2,0,0.2,0,0.3c-0.2,1.7,1.1,3.1,2.6,3.3C410,116.9,410.2,116.9,410.2,116.9L410.2,116.9z"/>
		<path class="st6" d="M421,113l1.6-4h1.7l-4.7,12.1h-1.7l1.2-3.3l-3.4-8.7h1.7l1.6,4l0.9,2.9L421,113z"/>
		<path class="st6" d="M430.5,114.7v-8.4h1.7v8.4c0,1.2,1.4,1.9,2.5,1.9c1.1,0,2.5-0.6,2.5-2v-8.4h1.7v8.4c0,2.3-2.2,3.6-4.2,3.6
			C432.8,118.3,430.5,117,430.5,114.7z"/>
		<path class="st6" d="M450.5,110.7c-0.5-1.9-2.3-2.6-3.7-2.6c-2.3,0.2-4.2,2.2-4,4.5c0.2,2.3,1.9,4,4,4.2c1.6,0,3.1-0.9,3.6-2.5
			H446v-1.7h6.2c0,0.8-0.2,1.4-0.3,2l0,0c-0.9,2.3-2.9,3.7-5.3,3.9c-3.3,0-5.9-2.8-5.9-6.1c0-3.4,2.6-6.1,5.9-6.1
			c2.2,0,5,1.1,5.6,4.3L450.5,110.7z"/>
		<path class="st6" d="M455.8,108.2c1.1-1.1,2.5-1.7,4-1.9c2.5,0,4.8,1.9,5.3,4.3h-1.6c-0.5-1.7-2-2.8-3.7-2.6
			c-1.1,0-2.2,0.5-2.9,1.2c-1.6,1.7-1.6,4.3,0,6.1c0.8,0.8,1.9,1.2,2.9,1.2c1.7,0,3.3-1.1,3.7-2.8h1.6c-0.6,3.1-3.6,5-6.5,4.3
			c-1.1-0.3-2-0.8-2.8-1.6C453.8,114.2,453.8,110.5,455.8,108.2L455.8,108.2z"/>
	</g>
</g>
</svg>
